<svg xmlns="http://www.w3.org/2000/svg" viewBox="0 0 22.82 22.82"><defs><style>.cls-1{fill:#b6d703;}</style></defs><title>copyray</title><g id="Capa_2" data-name="Capa 2"><g id="Capa_1-2" data-name="Capa 1"><path class="cls-1" d="M15.48,7.65a.76.76,0,0,1-.18.18.36.36,0,0,1-.24.07.66.66,0,0,1-.36-.14l-.48-.3a4,4,0,0,0-.71-.3,3.44,3.44,0,0,0-1-.13A3.25,3.25,0,0,0,11,7.32a2.75,2.75,0,0,0-1,.83,3.85,3.85,0,0,0-.63,1.32,6.69,6.69,0,0,0-.21,1.74A6.05,6.05,0,0,0,9.38,13,3.74,3.74,0,0,0,10,14.3a2.83,2.83,0,0,0,1,.81,3.21,3.21,0,0,0,1.34.28,3.43,3.43,0,0,0,1.16-.17,3.58,3.58,0,0,0,.76-.38c.2-.14.37-.26.51-.38a.61.61,0,0,1,.39-.17.43.43,0,0,1,.37.19l.55.71a3.69,3.69,0,0,1-.82.76,4.68,4.68,0,0,1-1,.53,5.13,5.13,0,0,1-1.1.31,6.64,6.64,0,0,1-1.18.1,4.92,4.92,0,0,1-1.93-.38A4.34,4.34,0,0,1,8.56,15.4a5.18,5.18,0,0,1-1-1.78,7.48,7.48,0,0,1-.37-2.41,7.17,7.17,0,0,1,.35-2.28,5.06,5.06,0,0,1,1-1.81,4.47,4.47,0,0,1,1.62-1.18,5.41,5.41,0,0,1,2.23-.43,5.24,5.24,0,0,1,2.05.38A4.94,4.94,0,0,1,16,7Z"/><path class="cls-1" d="M11.41,22.82A11.41,11.41,0,1,1,22.82,11.41,11.42,11.42,0,0,1,11.41,22.82ZM11.41,2a9.41,9.41,0,1,0,9.41,9.41A9.42,9.42,0,0,0,11.41,2Z"/></g></g></svg>