<svg xmlns="http://www.w3.org/2000/svg" viewBox="0 0 73.55 41.56"><defs><style>.cls-1{fill:#fff;}</style></defs><title>el tingo </title><g id="Capa_2" data-name="Capa 2"><g id="Capa_1-2" data-name="Capa 1"><path class="cls-1" d="M53.41,33.57c0,2.89-7.45,5.23-16.63,5.23s-16.64-2.34-16.64-5.23,7.45-5.23,16.64-5.23,16.63,2.34,16.63,5.23"/><path class="cls-1" d="M68.71,20.09h-.26a1.22,1.22,0,0,0-.46-.39,7.62,7.62,0,0,1-1.14-.81,7.87,7.87,0,0,0-3.78-2c-1.11-.12-3.87-2-5.79-3.29.12-.06.17-.16.13-.23s-.42-.2-.58-.4-.27-.15-.45-.25-.21-.51-.27-.71a1,1,0,0,0-.65-.45c-.24,0-.44-.36-.69-.62s-.15-.4-.42-.81c1.35,1.28,2.35.87,2.35.87A4.72,4.72,0,0,1,55.3,10c.75,0,1-.32,1-.41s-.34-.1-.71-.08c0-.1-.29-.23-.79-.48a17.71,17.71,0,0,1-1.57-1,9.67,9.67,0,0,0,2,.58,2,2,0,0,0,1.3-.15,2.17,2.17,0,0,1-.76-.13A3.08,3.08,0,0,0,55.08,8c-.07,0-.21-.1,0-.14s.42,0,.45-.18-.28-.25-.37-.38-.57-.21-.77-.35-.23-.18-.18-.33-.07-.16-.07-.26a.37.37,0,0,0-.26-.4,2.06,2.06,0,0,1-.58-.28,1.67,1.67,0,0,0-.6-.12c-.3,0-.17-.2-.11-.31s.43-.15.7-.12.61,0,.62-.15a.23.23,0,0,0-.25-.26.36.36,0,0,1-.37-.35c0-.24-.18-.22-.34-.36s-.44,0-.61,0-.16-.16-.11-.3.13-.1.19-.33a1.38,1.38,0,0,0,0-.53.69.69,0,0,0,.06-.7c-.19-.37-.78.17-.78.17a3.57,3.57,0,0,0,0-.37c0-.24-.22-.37-.18-.49s0-.86-.31-.87-.18,1-.18,1-.31-.55-.53-.44-.19,1,.14,1.37a.49.49,0,0,0-.07.37,1,1,0,0,0-.39,0c-.18,0,0,.91.23,1.66a2.08,2.08,0,0,0-1.31-1c-.35,0-.3.41-.11.59s.27.17,0,.39-.75.23-.49.51.54,0,1.24.13a8.74,8.74,0,0,1,2.14,1.4,6.73,6.73,0,0,0-2.13-.87c-.9-.11-1.46.69-1.78,1.44-1.74-1.3-3.24-2.47-3.69-2.92C43,2.93,40,.49,39.63.25A2.65,2.65,0,0,0,37.72.09l-.49.06a2.81,2.81,0,0,1-.58,0,3.42,3.42,0,0,0-1.52.16c-.28.08-.34,0-.44,0a.76.76,0,0,0-1.1.21,7.89,7.89,0,0,1-1.23.69,11.71,11.71,0,0,0-1.64.91A26.74,26.74,0,0,0,28.4,4.05l-.47.41a7.37,7.37,0,0,1-2.22,1.23l-.53.23a1.3,1.3,0,0,0-.95-.26,6.73,6.73,0,0,0-2.13.87,8.74,8.74,0,0,1,2.14-1.4c.7-.17,1,.16,1.23-.13s-.21-.28-.48-.51-.2-.21,0-.39.23-.6-.12-.59a2.06,2.06,0,0,0-1.3,1c.21-.75.41-1.64.23-1.66a1,1,0,0,0-.39,0,.49.49,0,0,0-.07-.37c.33-.38.35-1.26.14-1.37s-.53.44-.53.44,0-1-.19-.95-.34.74-.3.87-.17.25-.18.49a3.57,3.57,0,0,0,0,.37s-.59-.54-.78-.17a.68.68,0,0,0,.05.7,1.26,1.26,0,0,0,0,.53c.06.23.12.2.18.33s.07.3-.1.3-.45-.15-.61,0-.32.12-.35.36a.36.36,0,0,1-.36.35c-.2,0-.27.13-.26.26s.35.19.62.15.65,0,.71.12.18.27-.12.31a1.6,1.6,0,0,0-.59.12,2.16,2.16,0,0,1-.59.28.38.38,0,0,0-.26.4c0,.1-.12.11-.07.26s0,.18-.18.33-.67.21-.76.35-.39.19-.37.38.27.15.44.18,0,.12,0,.14a3.08,3.08,0,0,0-.65.27,2.21,2.21,0,0,1-.77.13,2,2,0,0,0,1.3.15,9.63,9.63,0,0,0,2-.58,17.71,17.71,0,0,1-1.57,1c-.5.25-.76.38-.79.48-.37,0-.67,0-.72.08s.23.43,1,.41A4.6,4.6,0,0,1,17.21,11a1.52,1.52,0,0,0,.8,0,30.91,30.91,0,0,1-3.88,1.87,8.66,8.66,0,0,0-2.49,1.5,23.56,23.56,0,0,1-2.36,1.68c-2.7,1.69-5.87,3.61-5.9,3.63a.6.6,0,0,0-.28.41h0c-1.05.06-2.08.17-3.1.33A30.33,30.33,0,0,0,23.93,41.56l6.21-7.91a30.37,30.37,0,0,0-3.66-4.5l.27.06a1.41,1.41,0,0,0-.1-.14l.67.14s-1.6-1.63-.76-1.11A16,16,0,0,0,28,29,7.89,7.89,0,0,1,27.62,27a7.24,7.24,0,0,1,0-.81c-.07-.19-.13-.39-.18-.58a.28.28,0,0,1-.21,0c-.24-.1-.32-.66.07-.58a7.11,7.11,0,0,1-.15-1.14,6.5,6.5,0,0,1,1.56-4.43,2.47,2.47,0,0,1-.52-.78s.68,0,1.25,0a9.22,9.22,0,0,1,.78-.62,0,0,0,0,0,0,0c0-.2.16-.17.32-.19l.16-.1c0-.14-.24-.4-.53-.41a1.46,1.46,0,0,1-.66-.11c-.21-.09-.18-.22-.36-.24s-.26,0-.28-.06.12-.42,0-.57-.29,0-.37-.08a2.35,2.35,0,0,0-1.16-.78,5.48,5.48,0,0,1-2-2.17c.71.62.68.55.85.78s.54.38.75.55.57.5.81.51a2.16,2.16,0,0,1,.62,0c.22,0,.37,0,.62,0s.31.1.51,0,.38,0,.4-.15-.17-.25-.37-.34-.24-.23-.45-.33-.26,0-.59-.21a1.84,1.84,0,0,0-.45-.2c-.08,0-.33-.41-.5-.53s0-.22.21-.11a1.38,1.38,0,0,0,.67.23c.23,0,.77,0,.81-.16s-.37-.17-.55-.4-.13-.21-.35-.25-.35-.34-.38-.45,0-.49-.24-.61a9,9,0,0,0-.91-.29,4.07,4.07,0,0,1-1-.56c.24,0,0-.47-.06-.54a4.66,4.66,0,0,0,1.7.73,3.36,3.36,0,0,0,.75-.07,5.63,5.63,0,0,1-1.43-1c.32-.09.62,0,.79-.13s.29,0,.33-.24-.34-.19-.57-.15a5.51,5.51,0,0,0-1.46-.85,2.65,2.65,0,0,1-.52-.31l.38-.16c.32.1.78.17.88,0s0-.19-.09-.29l1-.4.24.64a.59.59,0,0,0,.36.35.6.6,0,0,0,.49,0l.21-.12v.3a.6.6,0,0,0,1,.46l2.67-2.29,1,1.55a.59.59,0,0,0,.95.06l.44-.52c.76,1.42,1.12,1.41,1.36,1.41a.7.7,0,0,0,.63-.43L37,8.5a12.79,12.79,0,0,1,.58-1.29c.34.79.69,1.63.7,1.64a.6.6,0,0,0,1.08,0l.41-.78,2.43,1.82a.6.6,0,0,0,.36.12.62.62,0,0,0,.38-.14.59.59,0,0,0,.15-.72L43,9.07l.54.3a.6.6,0,0,0,.84-.76c-.14-.32-.26-.65-.36-.93.51.13,1.2.33,1.82.52a.56.56,0,0,0,.53-.09.6.6,0,0,0,.24-.48v0l1.35,1a5.6,5.6,0,0,0-1.36.82c-.23,0-.61,0-.58.15s.16.08.33.24.48,0,.79.13a5.63,5.63,0,0,1-1.42,1,3.32,3.32,0,0,0,.74.07,4.52,4.52,0,0,0,1.7-.73c-.09.07-.29.51,0,.54a4.28,4.28,0,0,1-1,.56c-.3.13-.72.16-.92.29s-.21.5-.23.61-.16.42-.38.45-.17,0-.36.25-.58.21-.54.4.58.17.81.16a1.38,1.38,0,0,0,.66-.23c.17-.11.38,0,.21.11a6.61,6.61,0,0,0-.49.53,2,2,0,0,0-.46.2c-.33.2-.37.11-.58.21s-.25.23-.45.33S44,14.88,44,15s.19.07.39.15.28,0,.52,0,.4,0,.62,0a2.18,2.18,0,0,1,.62,0c.24,0,.59-.35.8-.51a3.78,3.78,0,0,0,.76-.55c.16-.23.14-.16.85-.78a5.44,5.44,0,0,1-2,2.17,2.49,2.49,0,0,0-1.16.78c-.07,0-.25-.07-.36.08s0,.5,0,.57-.09,0-.27.06-.16.15-.36.24a1.46,1.46,0,0,1-.66.11c-.3,0-.55.27-.54.41l.17.1c.15,0,.35,0,.32.19a0,0,0,0,0,0,0,6.85,6.85,0,0,1,.78.62c.58,0,1.25,0,1.25,0a2.57,2.57,0,0,1-.51.78,6.49,6.49,0,0,1,1.55,4.43A7.1,7.1,0,0,1,46.59,25c.39-.08.31.48.07.58a.28.28,0,0,1-.21,0c-.05.19-.12.39-.19.58a4.37,4.37,0,0,1,0,.81A7.89,7.89,0,0,1,45.94,29a14.58,14.58,0,0,0,1.41-.87c.83-.52-.76,1.11-.76,1.11l.54-.12a31.45,31.45,0,0,0-3.73,4.56l6.22,7.91A30.35,30.35,0,0,0,73.55,20.48,30.89,30.89,0,0,0,68.71,20.09ZM17.15,22.7,17,22.65l.49-.14Zm2.26-7.94a4.22,4.22,0,0,1-1.14.92,4.79,4.79,0,0,1-.95.49,1,1,0,0,0-.72.63,2.87,2.87,0,0,1-1.7.86c-.4,0-.61.07-.62.16s.08.36.58.38a1.33,1.33,0,0,1,.63.1s-.41.24-.4.39.6.08.82.08.66-.17.87-.17.5,0,.5,0-.08.17,0,.26-.37.81-.55.88a.74.74,0,0,0-.49.34c-.1.21-1.27.67-1.38.73s-.52.15-.51.29.09.33.8.27c0,.17.13.24.4.2s.34.08.34.22.21.18.46.13.72-.09.72-.09a2,2,0,0,1-.75.38l-.23.09a30.25,30.25,0,0,0-11-2.17c1.17-.71,3.1-1.89,4.84-3a25.38,25.38,0,0,0,2.46-1.75A7.24,7.24,0,0,1,14.57,14c.43-.17,1.73-.71,3.07-1.41a.29.29,0,0,1-.11.13c-.19.1-.29,0-.45.25s-.5.27-.58.4.14.36.58.28,1-.41,1.11-.35-.22.22-.34.37,0,.19-.18.3-.34.32-.75.42a1.52,1.52,0,0,0-.64.34c-.19.11-.5.09-.61.2s-.09.34.17.38.63,0,1,0a2.26,2.26,0,0,0,.87-.1,5.52,5.52,0,0,0,.92-.37c.33-.14.45-.13.67-.36s.65-.59.65-.59S19.63,14.46,19.41,14.76Zm26-7.93h0a13.25,13.25,0,0,0-2-.5.69.69,0,0,0-.57.31c-.08.12-.2.3-.06.92l-.8-.45a.61.61,0,0,0-.7.09.59.59,0,0,0-.18.41l-1.17-.87a.61.61,0,0,0-.49-.11.58.58,0,0,0-.39.31l-.16.29c-.14-.35-.31-.72-.45-1.05a.84.84,0,0,0-.77-.55c-.59,0-1,.62-1.55,1.9-.17-.3-.37-.68-.55-1.06a.57.57,0,0,0-.46-.33.59.59,0,0,0-.53.2l-.51.6-.94-1.45a.57.57,0,0,0-.41-.26.57.57,0,0,0-.48.14L30,7.25v0a.58.58,0,0,0-.29-.51.59.59,0,0,0-.59,0L28.62,7l-.22-.56A.58.58,0,0,0,27.77,6a6.88,6.88,0,0,0,.95-.68l.47-.42a28,28,0,0,1,2.23-1.87,13.48,13.48,0,0,1,1.47-.81,8.1,8.1,0,0,0,1.44-.81,1.63,1.63,0,0,0,1.16,0,2.51,2.51,0,0,1,1.06-.11,4.12,4.12,0,0,0,.8,0l.53-.07a4.44,4.44,0,0,1,1-.06c.4.31,3.27,2.66,4.45,3.82.32.31,1.07.93,2.05,1.68A.49.49,0,0,0,45.41,6.83ZM56.58,22.61l-.21-.1.27.08Zm1-.41-.05,0a2,2,0,0,1-.75-.38s.48,0,.73.09.45,0,.45-.13.07-.26.34-.22.42,0,.4-.2c.71.06.79-.14.8-.27s-.39-.23-.5-.29-1.28-.52-1.38-.73a.79.79,0,0,0-.49-.34c-.18-.07-.68-.8-.56-.88s.05-.26.05-.26.28,0,.49,0,.65.16.87.17.8.08.82-.08-.39-.39-.39-.39a1.33,1.33,0,0,1,.63-.1c.5,0,.58-.29.58-.38s-.22-.19-.63-.16a2.81,2.81,0,0,1-1.69-.86,1,1,0,0,0-.72-.63,4.85,4.85,0,0,1-1-.49,4,4,0,0,1-1.13-.92c-.22-.3-.58-.83-.58-.83s.43.37.65.59.34.22.66.36a5.61,5.61,0,0,0,.93.37,2.24,2.24,0,0,0,.87.1,3.49,3.49,0,0,1,.65,0c2.24,1.5,4.13,2.64,5.27,2.76a7,7,0,0,1,3.16,1.72l.43.33A30.32,30.32,0,0,0,57.59,22.2Z"/><path class="cls-1" d="M47.65,29.15V19.92a1.3,1.3,0,0,0-.54-1.06L37.71,12a1.31,1.31,0,0,0-1.55,0l-9.4,6.83a1.3,1.3,0,0,0-.54,1.06v9.17A30.42,30.42,0,0,0,12,36.74a30.14,30.14,0,0,0,12,4.82L34.29,28.37q-.67,0-1.35,0a32.13,32.13,0,0,0-4.08.27v-8l8.07-5.87L45,20.6v8a29.14,29.14,0,0,0-4.2-.3c-.45,0-1.12,0-1.56.06L49.34,41.56c4.26-.78,8.49-2.07,11.93-4.61A28,28,0,0,0,47.65,29.15Z"/><rect class="cls-1" x="33.54" y="17.56" width="3.03" height="3.03" rx="0.6" ry="0.6"/><rect class="cls-1" x="37.08" y="17.56" width="3.03" height="3.03" rx="0.6" ry="0.6"/><rect class="cls-1" x="33.54" y="21.45" width="3.03" height="3.03" rx="0.6" ry="0.6"/><rect class="cls-1" x="37.08" y="21.45" width="3.03" height="3.03" rx="0.6" ry="0.6"/></g></g></svg>