<svg xmlns="http://www.w3.org/2000/svg" viewBox="0 0 29.8 29.8"><defs><style>.cls-1{fill:#b6d703;}</style></defs><title>facebook</title><g id="Capa_2" data-name="Capa 2"><g id="Capa_1-2" data-name="Capa 1"><path class="cls-1" d="M29.71,8.75C29.46,3.35,26.46.33,21.05.09,19.45,0,19,0,14.9,0S10.31,0,8.75.09C3.35.33.34,3.34.09,8.75,0,10.31,0,10.85,0,14.9s0,4.55.09,6.15c.25,5.4,3.25,8.41,8.66,8.66,1.6.06,2.1.09,6.15.09s4.55,0,6.15-.09c5.4-.25,8.41-3.25,8.66-8.66.08-1.6.09-2.1.09-6.15S29.8,10.35,29.71,8.75ZM27.07,20.92C26.89,24.93,25,26.85,21,27H20.9V17.85h2.48l.24-3.8H20.9V12.48c0-.92.13-1.27.76-1.27h2V6.42H20.35c-2.45,0-3.54,1.51-3.54,4.39v3.24H14.09v3.8h2.72v9.22H8.88C4.83,26.89,3,25,2.77,21c-.08-1.58-.09-2-.09-6s0-4.45.09-6C3,4.91,4.83,3,8.88,2.81c1.57-.1,2-.13,6-.13s4.45,0,6,.09C25,3,26.85,4.87,27,8.88c0,1.57,0,2,0,6Z"/></g></g></svg>