<svg xmlns="http://www.w3.org/2000/svg" viewBox="0 0 76.71 75"><defs><style>.cls-1{fill:#e6007e;}</style></defs><title>ico aojamiento</title><g id="Capa_2" data-name="Capa 2"><g id="Capa_1-2" data-name="Capa 1"><path class="cls-1" d="M46.24,75V55.2c0-3.42,0-3.43-3.46-3.44H33.72c-3.62,0-3.63,0-3.63,3.52,0,5.52,0,11,0,16.56v3.08c-6.11,0-11.94,0-17.77-.09-.49,0-1.37-1.25-1.38-1.93q-.12-17.34,0-34.67a4.2,4.2,0,0,1,1.34-2.6c7.91-7.7,15.92-15.29,23.8-23,1.61-1.57,2.58-1.56,4.18,0C48.09,20.4,56.08,28,63.92,35.79a5.25,5.25,0,0,1,1.46,3.3c.1,11,0,22.08.09,33.11,0,1.93-.45,2.84-2.58,2.8C57.48,74.89,52.06,75,46.24,75Z"/><path class="cls-1" d="M38.12,5.44,4.87,37c-.5.47-.94,1.22-1.52,1.35a16.72,16.72,0,0,1-3.25.08c0-1.15-.37-2.71.22-3.38,2.1-2.39,4.63-4.38,6.8-6.71A5.52,5.52,0,0,0,8.53,25c.15-5.24.07-10.48.07-15.89H20V16c1.09-.92,1.71-1.4,2.28-1.94,4.44-4.21,8.93-8.37,13.3-12.66,1.77-1.74,3.15-1.9,5-.11C52.2,12.36,63.87,23.36,75.44,34.46a5.5,5.5,0,0,1,1.27,3.08c.06.42-1.09,1.47-1.54,1.39a6.16,6.16,0,0,1-3.08-1.39q-15.93-15-31.74-30.06C39.68,6.84,39,6.22,38.12,5.44Z"/></g></g></svg>