<svg xmlns="http://www.w3.org/2000/svg" viewBox="0 0 29.73 29.8"><defs><style>.cls-1{fill:#fff;}</style></defs><title>ico whatsapp b</title><g id="Capa_2" data-name="Capa 2"><g id="Capa_1-2" data-name="Capa 1"><g id="Capa_2-2" data-name="Capa 2"><g id="Capa_1-2-2" data-name="Capa 1-2"><path class="cls-1" d="M0,29.8l2.11-7.69A14.76,14.76,0,1,1,14.9,29.54a14.91,14.91,0,0,1-7.09-1.8Zm8.23-4.75A12.31,12.31,0,1,0,4.8,21.71L3.51,26.27Zm14.23-6.8c-.09-.16-.34-.25-.7-.44s-2.2-1.08-2.59-1.21-.58-.18-.84.2-1,1.2-1.16,1.45-.44.27-.81.09a10.26,10.26,0,0,1-3-1.84,10.59,10.59,0,0,1-2.07-2.59c-.21-.36,0-.57.17-.75s.36-.42.55-.64a3.33,3.33,0,0,0,.38-.62.74.74,0,0,0,0-.65c-.09-.18-.83-2-1.14-2.74s-.61-.64-.83-.65H9.7a1.37,1.37,0,0,0-1,.45,4.17,4.17,0,0,0-1.3,3.09,7.13,7.13,0,0,0,1.52,3.88,16.3,16.3,0,0,0,6.32,5.59,17.87,17.87,0,0,0,2.11.79,5,5,0,0,0,2.33.14A3.74,3.74,0,0,0,22.2,20a3,3,0,0,0,.21-1.79Z"/></g></g></g></g></svg>