<svg xmlns="http://www.w3.org/2000/svg" viewBox="0 0 29.8 29.8"><defs><style>.cls-1{fill:#b6d703;}</style></defs><title>instagram</title><g id="Capa_2" data-name="Capa 2"><g id="Capa_1-2" data-name="Capa 1"><g id="Capa_2-2" data-name="Capa 2"><g id="Capa_1-2-2" data-name="Capa 1-2"><path class="cls-1" d="M14.9,2.68c4,0,4.45,0,6,.09C25,3,26.85,4.87,27,8.88c0,1.57,0,2,0,6v6C26.89,24.93,25,26.85,21,27c-1.63,0-2.08,0-6.06,0h-6C4.83,26.89,3,25,2.77,21c-.08-1.58-.09-2-.09-6s0-4.45.09-6C3,4.91,4.83,3,8.88,2.81,10.45,2.71,10.92,2.68,14.9,2.68ZM14.9,0c-4.05,0-4.59,0-6.15.09C3.35.34.34,3.34.09,8.75,0,10.31,0,10.85,0,14.9s0,4.55.09,6.15c.25,5.4,3.25,8.41,8.66,8.66,1.6.06,2.1.09,6.15.09s4.55,0,6.15-.09c5.4-.25,8.41-3.25,8.66-8.66.08-1.6.09-2.1.09-6.15s0-4.55-.09-6.15C29.46,3.35,26.46.34,21.05.09,19.45,0,19,0,14.9,0Zm0,7.24a7.66,7.66,0,1,0,7.64,7.67h0A7.66,7.66,0,0,0,14.9,7.24Zm0,12.62a5,5,0,1,1,5-5h0A5,5,0,0,1,14.9,19.86Zm8-14.7A1.79,1.79,0,1,0,24.64,7h0A1.79,1.79,0,0,0,22.85,5.16Z"/></g></g></g></g></svg>