<svg xmlns="http://www.w3.org/2000/svg" viewBox="0 0 156 109.2"><defs><style>.cls-1{fill:#00b7ff;}.cls-2{fill:#063;}.cls-3{fill:#3aaa35;}.cls-4{fill:#00aa35;}</style></defs><title>logo</title><g id="Capa_2" data-name="Capa 2"><g id="Capa_1-2" data-name="Capa 1"><path class="cls-1" d="M105.15,54.56c0,4.7-12.1,8.5-27,8.5s-27-3.8-27-8.5,12.11-8.49,27-8.49,27,3.8,27,8.49"/><path class="cls-2" d="M137.89,33.29a49.72,49.72,0,0,0-7.86-.63h-.42a2.27,2.27,0,0,0-.76-.63A13.13,13.13,0,0,1,127,30.72c-1.68-1.31-3.77-2.95-6.14-3.2-1.8-.19-6.29-3.2-9.41-5.34.2-.11.27-.27.2-.38s-.68-.33-.94-.66-.43-.24-.73-.39-.35-.83-.44-1.16a1.54,1.54,0,0,0-1.06-.74c-.38-.07-.71-.58-1.11-1s-.25-.66-.69-1.31c2.2,2.07,3.82,1.4,3.82,1.4a7.63,7.63,0,0,1-2.26-1.73c1.21,0,1.66-.53,1.59-.68s-.56-.15-1.17-.12c0-.17-.47-.38-1.28-.79A28.08,28.08,0,0,1,104.83,13a16,16,0,0,0,3.22.94,3.21,3.21,0,0,0,2.12-.24,3.4,3.4,0,0,1-1.24-.22,6.89,6.89,0,0,0-1.06-.44c-.11,0-.33-.15-.06-.21s.68,0,.72-.3-.44-.4-.6-.62-.93-.33-1.24-.57-.38-.29-.3-.54-.12-.25-.11-.42a.59.59,0,0,0-.42-.64,3.76,3.76,0,0,1-1-.46,2.74,2.74,0,0,0-1-.2c-.48-.06-.28-.32-.19-.5s.71-.24,1.15-.19,1,0,1-.25a.39.39,0,0,0-.42-.43.57.57,0,0,1-.59-.56c0-.39-.3-.35-.56-.59s-.72,0-1,0-.26-.26-.17-.48.2-.16.3-.53a2.16,2.16,0,0,0,0-.87,1.13,1.13,0,0,0,.09-1.14c-.31-.61-1.27.28-1.27.28a4.85,4.85,0,0,0,0-.61c0-.39-.35-.59-.3-.79S102,1,101.47,1s-.3,1.55-.3,1.55-.51-.89-.86-.71S100,3.42,100.54,4a.78.78,0,0,0-.12.6,1.85,1.85,0,0,0-.63,0c-.29,0,0,1.49.37,2.7A3.39,3.39,0,0,0,98,5.7c-.57,0-.49.66-.18,1s.44.27,0,.64-1.22.37-.79.83.86-.07,2,.2,3.48,2.29,3.48,2.29A10.9,10.9,0,0,0,99.09,9.2c-1.46-.18-2.38,1.13-2.89,2.34-2.82-2.11-5.26-4-6-4.74-2-2-6.93-6-7.44-6.4C82-.17,80.87,0,79.66.15l-.81.1a5.85,5.85,0,0,1-.94,0A5.57,5.57,0,0,0,75.45.5c-.46.14-.57.07-.72,0A1.23,1.23,0,0,0,73,.83a13.93,13.93,0,0,1-2,1.11,21.27,21.27,0,0,0-2.66,1.48,47.09,47.09,0,0,0-3.79,3.17l-.75.67a12.39,12.39,0,0,1-3.61,2l-.87.38a2.06,2.06,0,0,0-1.54-.43,11,11,0,0,0-3.46,1.42s2.34-2,3.48-2.29,1.58.26,2-.2-.35-.46-.79-.83-.31-.35,0-.64.39-1-.18-1a3.39,3.39,0,0,0-2.12,1.58c.35-1.21.66-2.67.37-2.7a1.85,1.85,0,0,0-.63,0,.78.78,0,0,0-.12-.6c.54-.61.58-2,.23-2.22s-.86.71-.86.71,0-1.57-.3-1.55-.55,1.21-.49,1.42-.28.4-.3.79a4.85,4.85,0,0,0,0,.61s-1-.89-1.27-.28a1.13,1.13,0,0,0,.09,1.14,2,2,0,0,0,0,.87c.09.37.2.31.29.53s.11.48-.17.48-.73-.24-1,0-.52.2-.56.59a.57.57,0,0,1-.59.56c-.32,0-.43.22-.41.43s.56.31,1,.25,1.06,0,1.15.19.29.44-.19.5a2.74,2.74,0,0,0-1,.2,3.76,3.76,0,0,1-.95.46.59.59,0,0,0-.42.64c0,.17-.2.18-.11.42s0,.3-.3.54-1.08.35-1.24.57-.64.31-.6.62.44.24.72.3,0,.18-.06.21a6.51,6.51,0,0,0-1,.44,3.47,3.47,0,0,1-1.25.22,3.21,3.21,0,0,0,2.12.24A16,16,0,0,0,52,13a28.08,28.08,0,0,1-2.55,1.65c-.81.41-1.23.62-1.28.79-.61,0-1.09,0-1.17.12s.38.71,1.6.68a7.75,7.75,0,0,1-2.27,1.73,2.45,2.45,0,0,0,1.3,0,49.7,49.7,0,0,1-6.31,3,14.15,14.15,0,0,0-4,2.44,35.82,35.82,0,0,1-3.82,2.72c-4.4,2.76-9.54,5.87-9.59,5.9a1,1,0,0,0-.46.67h0q-2.55.15-5,.54A49.4,49.4,0,0,0,37.79,59.72h0l.23.15c.15.11.31.21.47.31s.54.36.82.53l.51.32c.3.19.61.37.92.55l.75.43.86.47.71.37.6.3.8.39.47.21c1,.48,2.07.92,3.14,1.32l.23.09,1.12.4.15,0a48.66,48.66,0,0,0,7.67,1.94L67.34,54.7l6.74-8.58c-.73,0-1.46,0-2.2,0a50.07,50.07,0,0,0-8.18.67,12.49,12.49,0,0,1-.46-2.82,9.62,9.62,0,0,1,0-1.32c-.11-.31-.21-.63-.3-.94a.54.54,0,0,1-.34,0c-.39-.17-.52-1.07.11-.94a13.08,13.08,0,0,1-.23-1.87A10.53,10.53,0,0,1,65,31.61a4.09,4.09,0,0,1-.84-1.27s1.09,0,2,0a15.74,15.74,0,0,1,1.27-1l0,0c-.06-.32.26-.27.51-.29l.27-.17c0-.23-.39-.66-.86-.67A2.39,2.39,0,0,1,66.32,28c-.33-.15-.29-.35-.59-.38s-.42,0-.44-.11.18-.69,0-.93-.47-.06-.59-.13a4.07,4.07,0,0,0-1.89-1.26c-1.41-.48-3.07-3-3.3-3.53,1.15,1,1.11.9,1.38,1.27s.87.62,1.22.89.92.82,1.31.83a4.36,4.36,0,0,1,1,0c.35.1.61,0,1,0s.52.16.84,0,.62,0,.65-.25-.28-.39-.61-.55-.38-.37-.73-.53-.41,0-.95-.35a3.64,3.64,0,0,0-.74-.32c-.12-.08-.53-.66-.8-.85s.06-.36.34-.19A2.33,2.33,0,0,0,64.5,22c.37,0,1.26.05,1.32-.27s-.6-.27-.89-.65-.21-.34-.57-.4-.57-.55-.62-.73-.07-.8-.39-1-1-.25-1.48-.46a6.66,6.66,0,0,1-1.58-.91c.39-.06.06-.76-.09-.89A7.42,7.42,0,0,0,63,17.87a5.58,5.58,0,0,0,1.21-.11,9,9,0,0,1-2.31-1.58c.51-.14,1,.05,1.28-.21s.47-.05.54-.38-.56-.31-.94-.25A8.8,8.8,0,0,0,60.38,14a4.07,4.07,0,0,1-.86-.51l.62-.24c.53.16,1.27.26,1.44-.05s0-.3-.16-.47L63,12l.4,1a1,1,0,0,0,.57.57,1,1,0,0,0,.8-.06l.34-.19v.48a1,1,0,0,0,1.6.74l4.34-3.71,1.64,2.52a.94.94,0,0,0,.75.44,1,1,0,0,0,.8-.34l.71-.85C76.22,15,76.8,15,77.2,15a1.13,1.13,0,0,0,1-.69c0-.11.11-.27.19-.47.41-1,.72-1.66,1-2.09.56,1.28,1.13,2.64,1.13,2.66a1,1,0,0,0,.85.59.93.93,0,0,0,.9-.52l.67-1.27,4,3a1,1,0,0,0,1.45-1.2l-.09-.2.87.48A1,1,0,0,0,90.46,14c-.22-.51-.43-1.06-.58-1.51.82.22,2,.55,3,.85a.94.94,0,0,0,.86-.14,1,1,0,0,0,.4-.78v0c.7.54,1.44,1.09,2.2,1.65a9,9,0,0,0-2.22,1.32c-.38-.06-1-.07-.93.25s.24.13.53.38.77.07,1.28.21a9,9,0,0,1-2.31,1.58,5.58,5.58,0,0,0,1.21.11,7.42,7.42,0,0,0,2.76-1.2c-.15.13-.48.83-.09.89a6.66,6.66,0,0,1-1.58.91c-.48.21-1.17.26-1.48.46s-.34.81-.39,1-.26.68-.62.73-.27,0-.57.4-.95.34-.89.65,1,.28,1.32.27a2.33,2.33,0,0,0,1.08-.38c.28-.17.62,0,.34.19s-.68.77-.8.85a3.64,3.64,0,0,0-.74.32c-.54.33-.6.18-1,.35s-.4.37-.73.53-.63.34-.61.55.33.12.65.25.44,0,.84,0,.65.09,1,0a4.34,4.34,0,0,1,1,0c.39,0,1-.56,1.31-.83s1-.52,1.22-.89.23-.26,1.39-1.27c-.24.51-1.9,3.05-3.31,3.53a4.07,4.07,0,0,0-1.89,1.26c-.12.07-.4-.11-.59.13s0,.82,0,.93-.15.07-.44.11-.26.23-.59.38a2.37,2.37,0,0,1-1.07.18c-.48,0-.89.44-.87.67l.27.17c.25,0,.57,0,.51.29l0,0a15.74,15.74,0,0,1,1.27,1c.94-.05,2,0,2,0a4.19,4.19,0,0,1-.83,1.27,10.57,10.57,0,0,1,2.52,7.2,13.08,13.08,0,0,1-.23,1.87c.63-.13.5.77.12.94a.57.57,0,0,1-.35,0c-.09.31-.19.63-.3.94a9.62,9.62,0,0,1,0,1.32,12.82,12.82,0,0,1-.48,2.92,49.41,49.41,0,0,0-8.74-.77c-.74,0-1.48,0-2.21,0l6.75,8.58h0L99,67.55a49.22,49.22,0,0,0,7.67-1.94l.15,0,1.11-.4.24-.09c1.06-.41,2.11-.84,3.13-1.32l.48-.21.79-.39.6-.3.71-.37.86-.47.75-.43.93-.55.51-.32.82-.53.47-.31.23-.15h0a49.47,49.47,0,0,0,19.46-26.43m-12.09-1,.7.54A49,49,0,0,0,112,36.08a.19.19,0,0,0-.08,0,3.15,3.15,0,0,1-1.21-.61,11.69,11.69,0,0,1,1.18.15c.4.08.73,0,.73-.22s.11-.42.55-.35.69-.06.66-.33c1.15.1,1.28-.23,1.3-.45s-.64-.36-.82-.47A9.68,9.68,0,0,1,112,32.6a1.24,1.24,0,0,0-.79-.57c-.3-.11-1.11-1.29-.9-1.42s.07-.42.07-.42.45,0,.8,0,1.06.27,1.42.28,1.3.13,1.32-.12-.63-.65-.63-.65a2.12,2.12,0,0,1,1-.17c.81,0,1-.46.94-.6s-.36-.31-1-.26a4.52,4.52,0,0,1-2.76-1.41,1.59,1.59,0,0,0-1.17-1,8.21,8.21,0,0,1-1.55-.8,6.45,6.45,0,0,1-1.84-1.5c-.36-.48-1-1.35-1-1.35s.7.61,1.06,1,.55.35,1.08.58a8.92,8.92,0,0,0,1.51.6A3.46,3.46,0,0,0,111,25a7.53,7.53,0,0,1,1.07,0c3.64,2.45,6.71,4.29,8.56,4.49s3.66,1.63,5.14,2.8M110,36.59l.43.12-.1,0-.33-.17M46,36.81c.48-.12.81-.22.81-.22l-.62.3L46,36.81M26.6,32.67c1.9-1.16,5-3.07,7.86-4.84a38.32,38.32,0,0,0,4-2.85A12.15,12.15,0,0,1,42,22.82c.69-.28,2.81-1.16,5-2.29a.56.56,0,0,1-.18.22c-.3.15-.47.06-.73.39s-.81.44-.94.66.22.58,1,.46,1.56-.68,1.8-.58-.36.36-.56.6.07.32-.29.49-.56.52-1.22.69a2.61,2.61,0,0,0-1,.55c-.31.18-.81.15-1,.32s-.15.56.28.62,1-.06,1.69,0a3.53,3.53,0,0,0,1.41-.16,9.26,9.26,0,0,0,1.51-.6c.52-.23.71-.22,1.07-.58s1.06-1,1.06-1-.59.87-.95,1.35A6.45,6.45,0,0,1,48,25.49a8.21,8.21,0,0,1-1.55.8,1.59,1.59,0,0,0-1.17,1,4.52,4.52,0,0,1-2.76,1.41c-.65-.05-1,.11-1,.26s.13.59.94.6a2.12,2.12,0,0,1,1,.17s-.66.39-.63.65,1,.12,1.32.12,1.07-.28,1.42-.28.8,0,.8,0-.13.28.07.42-.6,1.31-.9,1.42a1.24,1.24,0,0,0-.79.57c-.16.34-2.06,1.07-2.25,1.17s-.83.25-.82.47.15.55,1.3.45c0,.27.21.39.66.33s.55.13.55.35.33.3.74.22a11.27,11.27,0,0,1,1.17-.15,3.15,3.15,0,0,1-1.21.61,2.22,2.22,0,0,0-.38.14,49.15,49.15,0,0,0-18-3.52m34.91,13c.74.45,1.27.84,1.77,1.14-.34,0-.67.11-1,.18-.67-.72-1.75-1.93-.77-1.32M92.15,11.1h0a21.4,21.4,0,0,0-3.33-.81,1.1,1.1,0,0,0-.92.5c-.14.2-.33.5-.1,1.49l-1.3-.72a1,1,0,0,0-1.14.14,1,1,0,0,0-.3.67L83.17,11a1,1,0,0,0-.8-.17,1,1,0,0,0-.64.5l-.25.47c-.24-.57-.51-1.18-.74-1.7a1.34,1.34,0,0,0-1.25-.9c-1,0-1.62,1-2.52,3.08-.28-.49-.6-1.1-.89-1.71a1,1,0,0,0-.75-.55,1,1,0,0,0-.87.34l-.82,1L72.11,8.93a1,1,0,0,0-.67-.43,1,1,0,0,0-.77.22l-3.58,3.06v0a1,1,0,0,0-.48-.83,1,1,0,0,0-1,0l-.8.45-.34-.92A1,1,0,0,0,64,9.88a1,1,0,0,0-.5-.07A9.9,9.9,0,0,0,65,8.71L65.78,8a45.28,45.28,0,0,1,3.63-3A19.4,19.4,0,0,1,71.8,3.68a12.87,12.87,0,0,0,2.34-1.33,2.72,2.72,0,0,0,1.89,0,3.7,3.7,0,0,1,1.72-.18,6.86,6.86,0,0,0,1.3,0l.86-.11A7.2,7.2,0,0,1,81.61,2c.64.51,5.32,4.33,7.23,6.22.51.5,1.74,1.5,3.33,2.73a1.11,1.11,0,0,0,0,.19M95.3,45.68c1-.64-.21.72-.87,1.42l-1-.2c.54-.31,1.1-.72,1.91-1.22"/><path class="cls-3" d="M0,79.11c0-3.61,1.9-5.66,5.37-5.66s5.37,2,5.37,5.66v11.7A6.66,6.66,0,0,1,10.07,94c.16.41.41.48,1,.48h.33V97.6H10.9a3.09,3.09,0,0,1-3.05-1.55,7.23,7.23,0,0,1-2.48.42c-3.47,0-5.37-2-5.37-5.66ZM3.54,91c0,1.61.71,2.22,1.83,2.22S7.2,92.65,7.2,91V78.88c0-1.61-.7-2.22-1.83-2.22s-1.83.61-1.83,2.22Z"/><path class="cls-3" d="M16.4,73.7V91.07c0,1.61.71,2.19,1.84,2.19s1.83-.58,1.83-2.19V73.7h3.34V90.85c0,3.6-1.8,5.66-5.27,5.66s-5.27-2.06-5.27-5.66V73.7Z"/><rect class="cls-3" x="25.83" y="73.7" width="3.54" height="22.51"/><polygon class="cls-3" points="35.16 79.91 35.09 79.91 35.09 96.22 31.91 96.22 31.91 73.7 36.34 73.7 39.91 87.18 39.98 87.18 39.98 73.7 43.13 73.7 43.13 96.22 39.5 96.22 35.16 79.91"/><polygon class="cls-3" points="44.64 73.7 55.58 73.7 55.58 76.92 51.88 76.92 51.88 96.22 48.34 96.22 48.34 76.92 44.64 76.92 44.64 73.7"/><path class="cls-3" d="M67.35,96.22H63.78l-.61-4.09H58.83l-.61,4.09H55l3.6-22.52h5.18Zm-8.07-7.14h3.41L61,77.69H61Z"/><polygon class="cls-3" points="77.52 83.19 82.37 83.19 82.37 86.41 77.52 86.41 77.52 93 83.63 93 83.63 96.22 73.98 96.22 73.98 73.7 83.63 73.7 83.63 76.92 77.52 76.92 77.52 83.19"/><polygon class="cls-3" points="85.81 73.7 89.35 73.7 89.35 93 95.17 93 95.17 96.22 85.81 96.22 85.81 73.7"/><polygon class="cls-3" points="100.67 73.7 111.61 73.7 111.61 76.92 107.91 76.92 107.91 96.22 104.37 96.22 104.37 76.92 100.67 76.92 100.67 73.7"/><rect class="cls-3" x="113.15" y="73.7" width="3.54" height="22.51"/><polygon class="cls-3" points="122.48 79.91 122.42 79.91 122.42 96.22 119.23 96.22 119.23 73.7 123.67 73.7 127.24 87.18 127.31 87.18 127.31 73.7 130.46 73.7 130.46 96.22 126.82 96.22 122.48 79.91"/><path class="cls-3" d="M138.3,83.67h5v7.14c0,3.61-1.8,5.66-5.28,5.66s-5.27-2-5.27-5.66V79.11c0-3.61,1.8-5.66,5.27-5.66s5.28,2,5.28,5.66v2.18h-3.35V78.88c0-1.61-.7-2.22-1.83-2.22s-1.83.61-1.83,2.22V91c0,1.61.7,2.19,1.83,2.19s1.83-.58,1.83-2.19V86.89H138.3Z"/><path class="cls-3" d="M145.25,79.11c0-3.61,1.9-5.66,5.37-5.66s5.38,2,5.38,5.66v11.7c0,3.61-1.9,5.66-5.38,5.66s-5.37-2-5.37-5.66ZM148.79,91c0,1.61.71,2.22,1.83,2.22s1.84-.61,1.84-2.22V78.88c0-1.61-.71-2.22-1.84-2.22s-1.83.61-1.83,2.22Z"/><polygon class="cls-2" points="1.82 107.7 1.82 102.91 0.06 102.91 0.06 101.83 4.87 101.83 4.87 102.91 3.11 102.91 3.11 107.7 1.82 107.7"/><path class="cls-2" d="M9.42,103.45v4.26H8.31v-.6h0a1.43,1.43,0,0,1-1.3.71,1.43,1.43,0,0,1-1.24-.49,2,2,0,0,1-.32-1.26v-2.62H6.59v2.4q0,1.05.75,1.05a.8.8,0,0,0,.69-.29,1.52,1.52,0,0,0,.22-.93v-2.23Z"/><path class="cls-2" d="M12.59,107.71v-5.88h1.17V104h0a1.53,1.53,0,0,1,1.24-.71,1.45,1.45,0,0,1,1.24.48,2.11,2.11,0,0,1,.32,1.28v2.62H15.42V105.3c0-.7-.25-1-.75-1a.8.8,0,0,0-.69.28,1.56,1.56,0,0,0-.22.93v2.24Z"/><path class="cls-2" d="M17.34,105.58A2.19,2.19,0,0,1,18,104a2.12,2.12,0,0,1,1.59-.62,2.15,2.15,0,0,1,1.61.62,2.51,2.51,0,0,1,0,3.26,2.15,2.15,0,0,1-1.61.61,2.12,2.12,0,0,1-1.59-.61,2.19,2.19,0,0,1-.61-1.63m1.17,0a1.68,1.68,0,0,0,.23.93.86.86,0,0,0,.8.43c.69,0,1-.45,1-1.36s-.35-1.37-1-1.37-1,.46-1,1.37"/><path class="cls-2" d="M22.3,106.32h1.11a.65.65,0,0,0,.28.55,1.08,1.08,0,0,0,.62.17,1,1,0,0,0,.51-.12.47.47,0,0,0,.26-.42c0-.17-.12-.3-.35-.4a5.81,5.81,0,0,0-1-.26,2.62,2.62,0,0,1-.93-.35.9.9,0,0,1-.42-.79c0-.91.62-1.37,1.85-1.37s1.8.46,1.88,1.36H25c0-.38-.3-.57-.8-.57s-.65.13-.65.39.14.32.41.42l.91.22a2.3,2.3,0,0,1,.93.36.93.93,0,0,1,.42.83,1.3,1.3,0,0,1-.6,1.16,2.95,2.95,0,0,1-2.69,0,1.37,1.37,0,0,1-.65-1.17"/><path class="cls-2" d="M26.93,109.2v-5.75H28V104h0a1.36,1.36,0,0,1,1.26-.66,1.72,1.72,0,0,1,1.47.7,2.57,2.57,0,0,1,.47,1.59,2.47,2.47,0,0,1-.47,1.53,1.66,1.66,0,0,1-1.4.67,1.43,1.43,0,0,1-1.28-.64h0v2Zm2.15-2.26c.67,0,1-.45,1-1.35a1.77,1.77,0,0,0-.23-.94.89.89,0,0,0-.79-.44.86.86,0,0,0-.79.43,1.78,1.78,0,0,0-.22,1,1.65,1.65,0,0,0,.23.93.87.87,0,0,0,.79.42"/><path class="cls-2" d="M36,105.86H32.92q0,1.08,1,1.08a1.09,1.09,0,0,0,.61-.18.67.67,0,0,0,.31-.37h1a1.92,1.92,0,0,1-2,1.43,2.09,2.09,0,0,1-1.59-.62,2.27,2.27,0,0,1-.59-1.62,2.23,2.23,0,0,1,.61-1.61,2.07,2.07,0,0,1,1.57-.64,1.86,1.86,0,0,1,1.6.78,2.53,2.53,0,0,1,.46,1.75m-3.07-.74h1.9c-.11-.6-.42-.91-.93-.91a.89.89,0,0,0-.75.33,1,1,0,0,0-.22.58"/><path class="cls-2" d="M39.72,107.71v-.55h0a1.39,1.39,0,0,1-1.3.66,1.68,1.68,0,0,1-1.43-.7,2.54,2.54,0,0,1-.48-1.58A2.41,2.41,0,0,1,37,104a1.7,1.7,0,0,1,1.41-.68,1.41,1.41,0,0,1,1.27.64h0v-2.14h1.17v5.88Zm0-2.15a1.8,1.8,0,0,0-.22-.93.87.87,0,0,0-.79-.42.88.88,0,0,0-.8.42,1.74,1.74,0,0,0-.23.94,1.57,1.57,0,0,0,.25.93.87.87,0,0,0,.78.44c.67,0,1-.46,1-1.38"/><path class="cls-2" d="M42.83,104.76H41.66a1.33,1.33,0,0,1,.67-1.12,2.63,2.63,0,0,1,1.34-.31c1.24,0,1.86.41,1.86,1.21v2.22a2,2,0,0,0,.15.95H44.5a2,2,0,0,1-.09-.42,1.88,1.88,0,0,1-1.43.53,1.58,1.58,0,0,1-1-.31,1.18,1.18,0,0,1-.42-1,1.11,1.11,0,0,1,.46-1,2.49,2.49,0,0,1,1-.32l1-.14q.42-.1.42-.42a.5.5,0,0,0-.24-.48,1.13,1.13,0,0,0-.52-.09c-.48,0-.74.21-.78.64m1.54,1.3v-.44a1.31,1.31,0,0,1-.61.19,3.66,3.66,0,0,0-.71.16.54.54,0,0,0-.35.53q0,.54.72.54a.86.86,0,0,0,.95-1"/><path class="cls-2" d="M45.84,109.17v-1a.85.85,0,0,0,.25,0c.31,0,.46-.13.46-.38v-4.41h1.17v4.47a1.29,1.29,0,0,1-.31,1,1.73,1.73,0,0,1-1.19.31l-.38,0m1.88-6.38H46.55v-1h1.17Z"/><path class="cls-2" d="M52.76,105.86H49.69q0,1.08,1.05,1.08a1.09,1.09,0,0,0,.61-.18.67.67,0,0,0,.31-.37h1a1.92,1.92,0,0,1-2,1.43,2.09,2.09,0,0,1-1.59-.62,2.27,2.27,0,0,1-.59-1.62,2.23,2.23,0,0,1,.61-1.61,2.07,2.07,0,0,1,1.57-.64,1.86,1.86,0,0,1,1.6.78,2.53,2.53,0,0,1,.46,1.75m-3.07-.74h1.9c-.11-.6-.42-.91-.93-.91a.89.89,0,0,0-.75.33,1,1,0,0,0-.22.58"/><path class="cls-2" d="M59.78,105.86H56.71c0,.72.38,1.08,1,1.08a1.07,1.07,0,0,0,.61-.18.63.63,0,0,0,.31-.37h1a1.91,1.91,0,0,1-2,1.43,2.09,2.09,0,0,1-1.58-.62,2.23,2.23,0,0,1-.59-1.62,2.26,2.26,0,0,1,.6-1.61,2.1,2.1,0,0,1,1.57-.64,1.88,1.88,0,0,1,1.61.78,2.58,2.58,0,0,1,.46,1.75m-3.07-.74h1.9c-.11-.6-.42-.91-.93-.91a.92.92,0,0,0-.76.33,1,1,0,0,0-.21.58"/><path class="cls-2" d="M60.47,107.71v-4.26h1.11V104h0a1.43,1.43,0,0,1,1.3-.71,1.46,1.46,0,0,1,1.24.48,2.12,2.12,0,0,1,.31,1.28v2.62H63.29V105.3c0-.7-.25-1-.75-1a.82.82,0,0,0-.69.28,1.64,1.64,0,0,0-.21.93v2.24Z"/><path class="cls-2" d="M67.67,107.71v-4.26h1.11V104h0a1.51,1.51,0,0,1,1.3-.7,1.25,1.25,0,0,1,1.25.71,1.46,1.46,0,0,1,1.28-.71,1.37,1.37,0,0,1,1.56,1.53v2.85H73v-2.42a1.79,1.79,0,0,0-.11-.73.62.62,0,0,0-.61-.3c-.52,0-.78.36-.78,1.07v2.38H70.34v-2.39a2.26,2.26,0,0,0-.07-.72.62.62,0,0,0-.64-.34.72.72,0,0,0-.48.18,1,1,0,0,0-.31.8v2.47Z"/><path class="cls-2" d="M79.13,105.86H76.06c0,.72.38,1.08,1,1.08a1.09,1.09,0,0,0,.61-.18.67.67,0,0,0,.31-.37h1a1.92,1.92,0,0,1-2,1.43,2.09,2.09,0,0,1-1.59-.62,2.47,2.47,0,0,1,0-3.23,2.07,2.07,0,0,1,1.57-.64,1.86,1.86,0,0,1,1.6.78,2.53,2.53,0,0,1,.46,1.75m-3.07-.74H78c-.11-.6-.42-.91-.93-.91a.89.89,0,0,0-.75.33,1,1,0,0,0-.22.58"/><path class="cls-2" d="M82.86,107.71v-.55h0a1.39,1.39,0,0,1-1.3.66,1.68,1.68,0,0,1-1.43-.7,2.54,2.54,0,0,1-.48-1.58,2.41,2.41,0,0,1,.48-1.53,1.7,1.7,0,0,1,1.41-.68,1.41,1.41,0,0,1,1.27.64h0v-2.14H84v5.88Zm0-2.15a1.71,1.71,0,0,0-.22-.93.87.87,0,0,0-.79-.42.88.88,0,0,0-.8.42,1.74,1.74,0,0,0-.23.94,1.57,1.57,0,0,0,.25.93.87.87,0,0,0,.78.44c.67,0,1-.46,1-1.38"/><path class="cls-2" d="M86.06,102.79H84.89v-1h1.17Zm-1.17.66h1.17v4.26H84.89Z"/><path class="cls-2" d="M86.85,105.58a2.23,2.23,0,0,1,.6-1.63,2.37,2.37,0,0,1,3.2,0,2.51,2.51,0,0,1,0,3.26,2.4,2.4,0,0,1-3.2,0,2.23,2.23,0,0,1-.6-1.63m1.17,0a1.69,1.69,0,0,0,.22.93.87.87,0,0,0,.81.43c.69,0,1-.45,1-1.36s-.34-1.37-1-1.37-1,.46-1,1.37"/><path class="cls-2" d="M97.34,107.71v-.55h0a1.38,1.38,0,0,1-1.29.66,1.66,1.66,0,0,1-1.43-.7,2.54,2.54,0,0,1-.48-1.58A2.41,2.41,0,0,1,94.6,104a1.67,1.67,0,0,1,1.4-.68,1.39,1.39,0,0,1,1.27.64h0v-2.14h1.17v5.88Zm0-2.15a1.8,1.8,0,0,0-.21-.93,1,1,0,0,0-1.59,0,2,2,0,0,0,0,1.87.89.89,0,0,0,.79.44c.67,0,1-.46,1-1.38"/><path class="cls-2" d="M103.36,105.86h-3.07c0,.72.38,1.08,1,1.08a1.09,1.09,0,0,0,.61-.18.67.67,0,0,0,.31-.37h1a1.92,1.92,0,0,1-2,1.43,2.09,2.09,0,0,1-1.59-.62,2.47,2.47,0,0,1,0-3.23,2.07,2.07,0,0,1,1.57-.64,1.86,1.86,0,0,1,1.6.78,2.53,2.53,0,0,1,.46,1.75m-3.07-.74h1.9c-.11-.6-.42-.91-.93-.91a.89.89,0,0,0-.75.33,1,1,0,0,0-.22.58"/><rect class="cls-2" x="106.38" y="101.83" width="1.17" height="5.88"/><path class="cls-2" d="M109.59,104.76h-1.17a1.29,1.29,0,0,1,.67-1.12,2.59,2.59,0,0,1,1.33-.31c1.25,0,1.87.41,1.87,1.21v2.22a2,2,0,0,0,.15.95h-1.19a1.46,1.46,0,0,1-.08-.42,1.89,1.89,0,0,1-1.43.53,1.56,1.56,0,0,1-1-.31,1.18,1.18,0,0,1-.42-1,1.12,1.12,0,0,1,.45-1,2.49,2.49,0,0,1,1-.32l1-.14q.42-.1.42-.42a.52.52,0,0,0-.23-.48,1.17,1.17,0,0,0-.53-.09c-.48,0-.73.21-.77.64m1.53,1.3v-.44a1.26,1.26,0,0,1-.61.19,3.87,3.87,0,0,0-.71.16.53.53,0,0,0-.34.53c0,.36.23.54.71.54a.86.86,0,0,0,1-1"/><path class="cls-2" d="M115.48,107.71v-4.26h1.11V104h0a1.43,1.43,0,0,1,1.3-.71,1.45,1.45,0,0,1,1.24.48,2.11,2.11,0,0,1,.32,1.28v2.62h-1.17V105.3c0-.7-.25-1-.75-1a.8.8,0,0,0-.69.28,1.56,1.56,0,0,0-.22.93v2.24Z"/><path class="cls-2" d="M121.48,104.76h-1.16a1.3,1.3,0,0,1,.66-1.12,2.63,2.63,0,0,1,1.34-.31c1.24,0,1.86.41,1.86,1.21v2.22a2,2,0,0,0,.15.95h-1.18a2,2,0,0,1-.09-.42,1.88,1.88,0,0,1-1.43.53,1.58,1.58,0,0,1-1-.31,1.18,1.18,0,0,1-.42-1,1.11,1.11,0,0,1,.46-1,2.49,2.49,0,0,1,1-.32l1-.14q.42-.1.42-.42a.52.52,0,0,0-.23-.48,1.2,1.2,0,0,0-.53-.09c-.48,0-.74.21-.78.64m1.54,1.3v-.44a1.31,1.31,0,0,1-.61.19,3.66,3.66,0,0,0-.71.16.54.54,0,0,0-.35.53q0,.54.72.54a.86.86,0,0,0,1-1"/><path class="cls-2" d="M126.57,102.17v1.28h.86v.78h-.86v2.11c0,.2,0,.33.1.39a.57.57,0,0,0,.4.1,2,2,0,0,0,.36,0v.91a4.17,4.17,0,0,1-.69,0c-.89,0-1.34-.33-1.34-1v-2.51h-.71v-.78h.71v-1.28Z"/><path class="cls-2" d="M132,103.45v4.26h-1.11v-.6h0a1.46,1.46,0,0,1-1.31.71,1.44,1.44,0,0,1-1.24-.49,2,2,0,0,1-.31-1.26v-2.62h1.17v2.4q0,1.05.75,1.05a.83.83,0,0,0,.69-.29,1.6,1.6,0,0,0,.21-.93v-2.23Z"/><path class="cls-2" d="M132.87,107.71v-4.26H134v.79h0a1.35,1.35,0,0,1,.54-.65,1.47,1.47,0,0,1,.82-.26,1.09,1.09,0,0,1,.25,0v1.09a1.76,1.76,0,0,0-.42,0c-.77,0-1.15.46-1.15,1.37v1.92Z"/><path class="cls-2" d="M137.19,104.76H136a1.33,1.33,0,0,1,.67-1.12,2.59,2.59,0,0,1,1.33-.31c1.25,0,1.87.41,1.87,1.21v2.22a2,2,0,0,0,.15.95h-1.18a2,2,0,0,1-.09-.42,1.88,1.88,0,0,1-1.43.53,1.58,1.58,0,0,1-1-.31,1.18,1.18,0,0,1-.42-1,1.12,1.12,0,0,1,.45-1,2.55,2.55,0,0,1,1-.32l1-.14q.42-.1.42-.42a.5.5,0,0,0-.23-.48,1.13,1.13,0,0,0-.52-.09c-.48,0-.74.21-.78.64m1.53,1.3v-.44a1.22,1.22,0,0,1-.61.19,3.7,3.7,0,0,0-.7.16.54.54,0,0,0-.35.53q0,.54.72.54c.63,0,.94-.33.94-1"/><rect class="cls-2" x="140.83" y="101.83" width="1.17" height="5.88"/><path class="cls-2" d="M147,105.86h-3.07c0,.72.38,1.08,1,1.08a1.07,1.07,0,0,0,.61-.18.67.67,0,0,0,.31-.37h1a1.91,1.91,0,0,1-2,1.43,2.09,2.09,0,0,1-1.58-.62,2.23,2.23,0,0,1-.59-1.62,2.26,2.26,0,0,1,.6-1.61,2.1,2.1,0,0,1,1.57-.64,1.88,1.88,0,0,1,1.61.78,2.58,2.58,0,0,1,.46,1.75m-3.07-.74h1.9c-.11-.6-.42-.91-.93-.91a.92.92,0,0,0-.76.33,1,1,0,0,0-.21.58"/><polygon class="cls-2" points="147.38 107.7 147.38 106.82 149.6 104.33 147.55 104.33 147.55 103.45 151.14 103.45 151.14 104.33 148.93 106.82 151.29 106.82 151.29 107.7 147.38 107.7"/><path class="cls-2" d="M153,104.76h-1.17a1.31,1.31,0,0,1,.67-1.12,2.59,2.59,0,0,1,1.33-.31c1.25,0,1.87.41,1.87,1.21v2.22a2,2,0,0,0,.15.95H154.7a1.91,1.91,0,0,1-.08-.42,1.88,1.88,0,0,1-1.43.53,1.58,1.58,0,0,1-1-.31,1.18,1.18,0,0,1-.42-1,1.12,1.12,0,0,1,.45-1,2.49,2.49,0,0,1,1-.32l1-.14q.42-.1.42-.42a.52.52,0,0,0-.23-.48,1.15,1.15,0,0,0-.53-.09c-.47,0-.73.21-.77.64m1.53,1.3v-.44a1.22,1.22,0,0,1-.61.19,4.1,4.1,0,0,0-.71.16.53.53,0,0,0-.34.53q0,.54.72.54c.63,0,.94-.33.94-1"/><path class="cls-3" d="M76.81,33.47h-3a1,1,0,0,1-1-1v-3a1,1,0,0,1,1-1h3a1,1,0,0,1,1,1v3a1,1,0,0,1-1,1"/><path class="cls-3" d="M82.57,33.47h-3a1,1,0,0,1-1-1v-3a1,1,0,0,1,1-1h3a1,1,0,0,1,1,1v3a1,1,0,0,1-1,1"/><path class="cls-3" d="M76.81,39.8h-3a1,1,0,0,1-1-1v-3a1,1,0,0,1,1-1h3a1,1,0,0,1,1,1v3a1,1,0,0,1-1,1"/><path class="cls-3" d="M82.57,39.8h-3a1,1,0,0,1-1-1v-3a1,1,0,0,1,1-1h3a1,1,0,0,1,1,1v3a1,1,0,0,1-1,1"/><path class="cls-4" d="M93.65,52.49a2.15,2.15,0,0,1-2.15-2.15V33.48L78.38,23.94,65.25,33.48V50.34a2.15,2.15,0,1,1-4.3,0v-18a2.14,2.14,0,0,1,.89-1.74l15.27-11.1a2.15,2.15,0,0,1,2.53,0l15.27,11.1a2.14,2.14,0,0,1,.89,1.74v18a2.15,2.15,0,0,1-2.15,2.15"/></g></g></svg>