<svg xmlns="http://www.w3.org/2000/svg" viewBox="0 0 24.3 24.49"><defs><style>.cls-1{fill:#b6d703;}</style></defs><title>whatsapp</title><g id="Capa_2" data-name="Capa 2"><g id="Capa_1-2" data-name="Capa 1"><path class="cls-1" d="M12.15,0A12.25,12.25,0,0,0,2.33,19.44l-1,5,4.73-1.64a12,12,0,0,0,6.06,1.64A12.25,12.25,0,0,0,12.15,0Zm6,17.06a3.63,3.63,0,0,1-2.53,1.26,11.11,11.11,0,0,1-6.22-2.81c-1.7-1.71-3.21-3.45-3.56-5S5.58,8.19,6,7.54c0,0,.71-1.25,1.29-1.33s1.33-.07,1.53.31S10,9.13,10,9.13a.9.9,0,0,1-.09.76,6.93,6.93,0,0,1-.77.91.65.65,0,0,0,0,.78A14.61,14.61,0,0,0,10.8,13.7a9.24,9.24,0,0,0,2.78,1.64.55.55,0,0,0,.43-.13c.16-.17,1.06-1.3,1.06-1.3a.63.63,0,0,1,.77-.16C16.33,14,18.41,15,18.41,15a.46.46,0,0,1,.24.46A3,3,0,0,1,18.2,17.06Z"/></g></g></svg>